<svg width="720" height="520" viewBox="0 0 720 520" fill="none" xmlns="http://www.w3.org/2000/svg">
<path d="M372.054 322.9C391.494 308.348 426.302 277.603 416.149 239.428C416.149 239.428 397.378 267.963 369.135 261.723C375.851 239.907 396.383 211.478 365.704 170.93C365.704 170.93 350.511 196.999 327.594 199.225C331.009 179.619 328.573 155.724 299.194 131.211C299.194 131.211 300.645 151.381 271.142 156.463C260.347 140.993 251.482 124.82 244.997 107.973L238.213 96.9028L194.411 95.9806L191.059 99.84C184.168 121.274 173.824 142.013 160.2 161.509C133.206 151.377 129.099 126.035 129.099 126.035C114.187 151.759 94.6856 179.619 98.1 199.225C82.2319 188.37 73.2487 167.31 73.2487 167.31C55.665 197.645 49.8375 239.911 56.5537 261.723C27.3712 267.963 11.475 237.547 11.475 237.547C8.60062 274.475 34.1944 308.348 53.6344 322.896C37.3331 322.038 26.8312 319.967 26.8312 319.967C62.0156 430.219 210.758 422.642 212.839 422.484C212.867 422.484 212.94 422.492 213.019 422.496C214.346 422.914 215.769 423.134 217.221 423.134C218.244 423.134 219.234 422.992 220.202 422.78C250.914 423.434 368.139 419.482 398.846 323.241C398.852 323.249 388.35 322.038 372.054 322.9Z" fill="#E71578"/>
<path d="M327.583 211.413C350.499 209.186 365.692 183.117 365.692 183.117C376.161 196.95 380.582 209.341 381.712 220.569C383.158 206.306 380.098 189.967 365.692 170.93C365.692 170.93 351 196.056 328.736 199.034C328.702 203.316 328.275 207.456 327.583 211.413Z" fill="#9BAC0F"/>
<path d="M52.5431 322.839C44.1169 322.717 26.8312 319.971 26.8312 319.971C28.2825 324.529 29.9981 328.811 31.8206 332.975C36.4275 333.653 46.9406 334.579 56.5987 335.087C52.0144 331.65 54.6806 329.436 52.5431 322.839Z" fill="#9BAC0F"/>
<path d="M373.365 262.36C371.773 266.407 370.254 270.262 369.129 273.914C397.378 280.15 416.143 251.619 416.143 251.619C416.824 254.187 417.274 256.713 417.566 259.212C418.292 252.887 417.966 246.285 416.143 239.432C416.143 239.432 399.229 265.062 373.365 262.36Z" fill="#9BAC0F"/>
<path d="M56.5537 273.91C55.485 270.441 54.7706 266.411 54.3319 262.039C26.5894 266.293 11.4694 237.547 11.4694 237.547C11.1431 241.727 11.2275 245.863 11.5819 249.941C12.7462 252.074 28.4794 279.91 56.5537 273.91Z" fill="#9BAC0F"/>
<path d="M365.625 335.087C376.875 335.087 389.824 334.811 394.374 335.083C396 331.285 397.53 327.381 398.852 323.249C398.852 323.249 381.707 321.827 372.049 322.9C366.716 327.815 370.074 331.756 365.625 335.087Z" fill="#9BAC0F"/>
<path d="M73.2487 179.497C73.2487 179.497 82.2319 200.558 98.1 211.413C94.6856 191.807 114.187 163.946 129.099 138.222C129.099 138.222 133.206 163.564 160.2 173.696C173.824 154.2 184.162 133.461 191.059 112.028L194.411 108.168L238.213 109.09L244.997 120.161C251.482 137.008 260.347 153.181 271.142 168.651C300.645 163.568 299.194 143.398 299.194 143.398C319.646 160.465 327.026 177.227 328.477 192.457C330.109 174.237 325.271 152.973 299.194 131.211C299.194 131.211 300.645 151.381 271.142 156.463C260.347 140.993 251.482 124.82 244.997 107.973L238.213 96.9028L194.411 95.9806L191.059 99.84C184.168 121.274 173.824 142.013 160.2 161.509C133.206 151.377 129.099 126.035 129.099 126.035C114.187 151.759 94.6856 179.619 98.1 199.225C82.2319 188.37 73.2487 167.31 73.2487 167.31C59.2256 191.498 52.7119 223.242 54.0394 246.183C55.1137 225.006 61.5712 199.635 73.2487 179.497Z" fill="#9BAC0F"/>
<path d="M235.496 204.978C206.314 211.213 190.417 180.802 190.417 180.802C187.543 217.73 213.137 251.603 232.577 266.151" fill="#9BAC0F"/>
<path d="M145.136 270.583C115.954 276.819 100.057 246.407 100.057 246.407C97.1831 283.335 122.777 317.208 142.217 331.756" fill="#9BAC0F"/>
<path d="M280.547 270.583C309.729 276.819 325.626 246.407 325.626 246.407C328.5 283.335 302.906 317.208 283.466 331.756" fill="#9BAC0F"/>
<path d="M235.496 336.188C206.314 342.424 190.417 312.012 190.417 312.012C188.263 339.71 202.117 365.686 217.384 383.082" fill="#9BAC0F"/>
<path d="M209.492 118.207C180.467 106.986 93.7575 67.2384 142.116 8.125C142.116 8.125 151.2 37.765 180.534 48.7378C199.789 55.9406 213.143 69.3631 214.689 85.0525L217.732 114.302C218.059 117.504 213.407 119.718 209.492 118.207Z" fill="#667A1D"/>
<path d="M222.081 118.235C250.926 107.482 337.607 69.0097 289.198 9.82721C289.198 9.82721 280.114 39.4672 250.779 50.44C231.525 57.6428 218.171 71.0653 216.624 86.7547L213.913 114.323C213.604 117.488 218.171 119.689 222.081 118.235Z" fill="#667A1D"/>
<path d="M142.116 28.4375C142.116 28.4375 151.2 58.0775 180.534 69.0503C199.789 76.2531 215.145 89.6756 216.686 105.365L214.689 85.0525C213.148 69.3631 199.794 55.9406 180.534 48.7378C151.2 37.765 142.116 8.125 142.116 8.125C128.672 24.5619 125.752 39.5891 129.043 53.0075C130.961 45.2156 135.096 37.0175 142.116 28.4375Z" fill="#7A9D18"/>
<path d="M216.624 103.736C218.166 88.0466 231.519 77.9553 250.779 70.7525C280.114 59.7797 289.198 30.1397 289.198 30.1397C296.218 38.7197 300.352 46.9178 302.271 54.7097C305.567 41.2913 302.647 26.2641 289.198 9.82721C289.198 9.82721 280.114 39.4672 250.779 50.44C231.525 57.6428 218.171 71.0653 216.624 86.7547V103.736Z" fill="#7A9D18"/>
<path d="M407.565 480.297C426.915 493.667 467.798 517.607 518.563 510.624C518.563 510.624 480.622 497.713 488.914 478.286C517.922 482.905 555.728 497.027 609.649 475.926C609.649 475.926 574.982 465.477 572.023 449.715C598.095 452.063 629.871 450.385 662.467 430.182C662.467 430.182 635.647 431.182 628.886 410.889C649.457 403.463 670.967 397.365 693.366 392.909L708.086 388.241L708.75 372.011H274.629C274.416 372.6 274.269 373.197 274.269 373.811C274.269 374.514 274.461 375.196 274.736 375.862C282.566 395.826 279.124 477.608 407.098 498.729C407.098 498.729 408.707 491.506 407.565 480.297Z" fill="#F6F7E6"/>
<path d="M488.914 466.099C487.001 470.58 487.614 474.695 489.589 478.404C518.507 483.129 556.138 496.868 609.649 475.926C609.649 475.926 601.656 473.501 593.027 469.251C547.824 481.869 514.839 470.23 488.914 466.099Z" fill="#D90836"/>
<path d="M407.104 486.541C292.331 467.598 276.272 400.831 274.804 372.011H274.629C274.416 372.596 274.269 373.197 274.269 373.811C274.269 374.514 274.461 375.196 274.736 375.862C273.864 396.983 279.124 477.608 407.098 498.729C407.098 498.729 408.499 492.249 407.7 482.101C407.447 484.916 407.104 486.541 407.104 486.541Z" fill="#D90836"/>
<path d="M407.565 468.11C408.077 473.159 408.026 477.336 407.824 480.472C427.269 493.874 468.011 517.579 518.563 510.624C518.563 510.624 506.677 506.573 497.661 499.602C456.688 498.798 424.176 479.586 407.565 468.11Z" fill="#D90836"/>
<path d="M645.171 427.078C618.744 438.64 593.46 439.457 572.029 437.523C572.934 442.353 576.833 446.676 581.783 450.361C605.841 451.376 633.836 447.927 662.473 430.178C662.473 430.178 653.861 430.495 645.171 427.078Z" fill="#D90836"/>
<path d="M708.092 376.053L693.371 380.721C670.972 385.182 649.463 391.28 628.892 398.702C630.293 402.898 632.571 406.144 635.271 408.716C653.912 402.297 673.262 396.91 693.371 392.909L708.092 388.241L708.75 372.011H708.255L708.092 376.053Z" fill="#D90836"/>
<path d="M453.634 444.677C456.885 444.677 460.086 443.727 462.352 442.073C464.664 440.456 465.947 438.165 465.947 435.845C465.947 433.558 464.67 431.271 462.352 429.65C457.768 426.38 449.544 426.38 444.966 429.65C442.654 431.271 441.321 433.558 441.321 435.845C441.321 438.169 442.654 440.456 444.966 442.073C447.233 443.727 450.433 444.677 453.634 444.677Z" fill="#362420"/>
<path d="M404.432 444.641C407.633 444.641 410.833 443.727 413.1 442.073C415.412 440.456 416.694 438.165 416.694 435.845C416.694 433.558 415.418 431.271 413.1 429.65C408.516 426.38 400.241 426.38 395.713 429.65C393.401 431.271 392.068 433.558 392.068 435.845C392.068 438.169 393.401 440.42 395.668 442.073C397.98 443.727 401.181 444.641 404.432 444.641Z" fill="#362420"/>
<path d="M383.563 467.594C386.814 467.594 390.015 466.68 392.282 465.026C394.594 463.409 395.927 461.118 395.927 458.798C395.927 456.511 394.594 454.224 392.282 452.603C387.697 449.333 379.423 449.333 374.895 452.603C372.583 454.224 371.25 456.511 371.25 458.798C371.25 461.122 372.583 463.409 374.895 465.026C377.162 466.676 380.363 467.594 383.563 467.594Z" fill="#362420"/>
<path d="M502.881 444.641C506.132 444.641 509.332 443.727 511.599 442.073C513.911 440.456 515.194 438.165 515.194 435.845C515.194 433.522 513.917 431.271 511.599 429.65C507.071 426.38 498.741 426.38 494.213 429.65C491.901 431.271 490.568 433.558 490.568 435.845C490.568 438.169 491.901 440.456 494.213 442.073C496.479 443.727 499.686 444.641 502.881 444.641Z" fill="#362420"/>
<path d="M552.133 444.641C555.384 444.641 558.585 443.727 560.852 442.073C563.164 440.456 564.446 438.165 564.446 435.845C564.446 433.558 563.164 431.271 560.852 429.65C556.273 426.38 547.993 426.38 543.465 429.65C541.153 431.271 539.82 433.558 539.82 435.845C539.82 438.169 541.147 440.456 543.465 442.073C545.732 443.727 548.932 444.641 552.133 444.641Z" fill="#362420"/>
<path d="M576.759 409.447C580.011 409.447 583.211 408.533 585.478 406.88C587.79 405.263 589.072 402.972 589.072 400.652C589.072 398.365 587.79 396.077 585.478 394.457C580.899 391.186 572.67 391.186 568.091 394.457C565.779 396.077 564.446 398.365 564.446 400.652C564.446 402.976 565.774 405.263 568.091 406.88C570.358 408.529 573.559 409.447 576.759 409.447Z" fill="#362420"/>
<path d="M527.513 409.447C530.764 409.447 533.964 408.533 536.231 406.88C538.543 405.263 539.826 402.972 539.826 400.684C539.826 398.361 538.543 396.073 536.231 394.457C531.653 391.186 523.423 391.186 518.844 394.457C516.532 396.077 515.25 398.365 515.25 400.684C515.25 402.972 516.527 405.263 518.844 406.88C521.106 408.529 524.306 409.447 527.513 409.447Z" fill="#362420"/>
<path d="M478.254 409.48C481.506 409.48 484.706 408.529 486.973 406.876C489.285 405.259 490.618 402.967 490.618 400.68C490.618 398.357 489.285 396.069 486.973 394.452C482.389 391.182 474.114 391.182 469.586 394.452C467.274 396.073 465.941 398.361 465.941 400.68C465.941 402.967 467.274 405.259 469.586 406.876C471.853 408.529 475.059 409.48 478.254 409.48Z" fill="#362420"/>
<path d="M429.007 409.48C432.259 409.48 435.459 408.529 437.726 406.876C440.038 405.259 441.321 402.967 441.321 400.648C441.321 398.361 440.044 396.073 437.726 394.452C433.142 391.182 424.918 391.146 420.339 394.452C418.027 396.073 416.694 398.361 416.694 400.648C416.694 402.972 418.027 405.259 420.339 406.876C422.606 408.529 425.807 409.48 429.007 409.48Z" fill="#362420"/>
<path d="M379.755 409.447C383.006 409.447 386.207 408.533 388.474 406.88C390.786 405.263 392.068 402.972 392.068 400.684C392.068 398.361 390.791 396.073 388.474 394.457C383.889 391.186 375.666 391.186 371.087 394.457C368.775 396.077 367.442 398.365 367.442 400.684C367.442 402.972 368.775 405.263 371.087 406.88C373.354 408.529 376.56 409.447 379.755 409.447Z" fill="#362420"/>
<path d="M355.185 444.641C358.386 444.641 361.586 443.727 363.853 442.073C366.165 440.456 367.447 438.165 367.447 435.845C367.447 433.558 366.171 431.271 363.853 429.65C359.269 426.38 350.994 426.38 346.466 429.65C344.154 431.271 342.821 433.558 342.821 435.845C342.821 438.169 344.154 440.42 346.421 442.073C348.727 443.727 351.934 444.641 355.185 444.641Z" fill="#362420"/>
<path d="M330.502 409.447C333.754 409.447 336.954 408.533 339.221 406.88C341.533 405.263 342.816 402.972 342.816 400.684C342.816 398.361 341.539 396.073 339.221 394.457C334.637 391.186 326.413 391.186 321.834 394.457C319.522 396.077 318.189 398.365 318.189 400.684C318.189 402.972 319.522 405.263 321.834 406.88C324.101 408.529 327.307 409.447 330.502 409.447Z" fill="#362420"/>
<path d="M445.725 476.316C448.976 476.316 452.177 475.402 454.444 473.748C456.756 472.132 458.089 469.84 458.089 467.521C458.089 465.233 456.756 462.946 454.444 461.325C449.859 458.055 441.585 458.055 437.057 461.325C434.745 462.946 433.412 465.233 433.412 467.521C433.412 469.844 434.745 472.132 437.057 473.748C439.324 475.402 442.524 476.316 445.725 476.316Z" fill="#362420"/>
</svg>
